<mxfile host="Electron" modified="2023-12-05T19:24:48.731Z" agent="Mozilla/5.0 (Windows NT 10.0; Win64; x64) AppleWebKit/537.36 (KHTML, like Gecko) draw.io/22.1.2 Chrome/114.0.5735.289 Electron/25.9.4 Safari/537.36" etag="PG-cGmanq0c37-p-AbG_" version="22.1.2" type="device">
  <diagram name="PÃ¡gina-1" id="CvLeNIxYcr1sNdxqvgvk">
    <mxGraphModel dx="3033" dy="2455" grid="1" gridSize="10" guides="1" tooltips="1" connect="1" arrows="1" fold="1" page="1" pageScale="1" pageWidth="827" pageHeight="1169" math="0" shadow="0">
      <root>
        <mxCell id="0" />
        <mxCell id="1" parent="0" />
        <mxCell id="wkCi4Z63Fvo80z9R39oR-66" value="Remote services" style="rounded=0;whiteSpace=wrap;html=1;fillColor=default;fontColor=#333333;strokeColor=default;gradientColor=none;labelPosition=center;verticalLabelPosition=middle;align=center;verticalAlign=top;horizontal=0;fontSize=20;" vertex="1" parent="1">
          <mxGeometry x="-160" y="150" width="260" height="610" as="geometry" />
        </mxCell>
        <mxCell id="wkCi4Z63Fvo80z9R39oR-57" value="Internals Modules" style="rounded=0;whiteSpace=wrap;html=1;fillColor=default;fontColor=#333333;strokeColor=default;gradientColor=none;labelPosition=center;verticalLabelPosition=middle;align=center;verticalAlign=top;horizontal=0;fontSize=20;" vertex="1" parent="1">
          <mxGeometry x="139" y="670" width="550" height="220" as="geometry" />
        </mxCell>
        <mxCell id="wkCi4Z63Fvo80z9R39oR-52" value="Internal / External SQL" style="rounded=0;whiteSpace=wrap;html=1;fillColor=default;fontColor=#333333;strokeColor=default;gradientColor=none;labelPosition=center;verticalLabelPosition=middle;align=center;verticalAlign=top;horizontal=0;fontSize=20;" vertex="1" parent="1">
          <mxGeometry x="680" y="312.5" width="460" height="285" as="geometry" />
        </mxCell>
        <mxCell id="wkCi4Z63Fvo80z9R39oR-43" value="Internal Server" style="rounded=0;whiteSpace=wrap;html=1;fillColor=default;fontColor=#333333;strokeColor=default;gradientColor=none;labelPosition=center;verticalLabelPosition=middle;align=center;verticalAlign=top;horizontal=0;fontSize=20;" vertex="1" parent="1">
          <mxGeometry x="231" y="340" width="365" height="270" as="geometry" />
        </mxCell>
        <mxCell id="wkCi4Z63Fvo80z9R39oR-35" value="Client 1" style="image;aspect=fixed;perimeter=ellipsePerimeter;html=1;align=center;shadow=0;dashed=0;spacingTop=3;image=img/lib/active_directory/laptop_client.svg;fontSize=20;" vertex="1" parent="1">
          <mxGeometry x="209.5" y="-140" width="108" height="120" as="geometry" />
        </mxCell>
        <mxCell id="wkCi4Z63Fvo80z9R39oR-36" value="Client 2" style="image;aspect=fixed;perimeter=ellipsePerimeter;html=1;align=center;shadow=0;dashed=0;spacingTop=3;image=img/lib/active_directory/vista_terminal.svg;fontSize=20;" vertex="1" parent="1">
          <mxGeometry x="375.5" y="-140" width="78" height="120" as="geometry" />
        </mxCell>
        <mxCell id="wkCi4Z63Fvo80z9R39oR-37" value="Client 3&lt;br style=&quot;font-size: 20px;&quot;&gt;" style="image;aspect=fixed;perimeter=ellipsePerimeter;html=1;align=center;shadow=0;dashed=0;spacingTop=3;image=img/lib/active_directory/mac_client.svg;fontSize=20;" vertex="1" parent="1">
          <mxGeometry x="515.5" y="-140" width="117" height="124.47" as="geometry" />
        </mxCell>
        <mxCell id="wkCi4Z63Fvo80z9R39oR-48" style="edgeStyle=orthogonalEdgeStyle;rounded=0;orthogonalLoop=1;jettySize=auto;html=1;fontSize=20;" edge="1" parent="1" source="wkCi4Z63Fvo80z9R39oR-41" target="wkCi4Z63Fvo80z9R39oR-44">
          <mxGeometry relative="1" as="geometry" />
        </mxCell>
        <mxCell id="wkCi4Z63Fvo80z9R39oR-41" value="Central Distribution Service" style="image;aspect=fixed;perimeter=ellipsePerimeter;html=1;align=center;shadow=0;dashed=0;spacingTop=3;image=img/lib/active_directory/generic_server.svg;fontSize=20;" vertex="1" parent="1">
          <mxGeometry x="355" y="350" width="117.6" height="210" as="geometry" />
        </mxCell>
        <mxCell id="wkCi4Z63Fvo80z9R39oR-69" value="" style="edgeStyle=orthogonalEdgeStyle;rounded=0;orthogonalLoop=1;jettySize=auto;html=1;" edge="1" parent="1" source="wkCi4Z63Fvo80z9R39oR-44" target="wkCi4Z63Fvo80z9R39oR-36">
          <mxGeometry relative="1" as="geometry" />
        </mxCell>
        <mxCell id="wkCi4Z63Fvo80z9R39oR-70" style="edgeStyle=orthogonalEdgeStyle;rounded=0;orthogonalLoop=1;jettySize=auto;html=1;" edge="1" parent="1" source="wkCi4Z63Fvo80z9R39oR-44" target="wkCi4Z63Fvo80z9R39oR-37">
          <mxGeometry relative="1" as="geometry">
            <Array as="points">
              <mxPoint x="414" y="60" />
              <mxPoint x="574" y="60" />
            </Array>
          </mxGeometry>
        </mxCell>
        <mxCell id="wkCi4Z63Fvo80z9R39oR-71" style="edgeStyle=orthogonalEdgeStyle;rounded=0;orthogonalLoop=1;jettySize=auto;html=1;" edge="1" parent="1" source="wkCi4Z63Fvo80z9R39oR-44" target="wkCi4Z63Fvo80z9R39oR-35">
          <mxGeometry relative="1" as="geometry">
            <Array as="points">
              <mxPoint x="414" y="60" />
              <mxPoint x="264" y="60" />
            </Array>
          </mxGeometry>
        </mxCell>
        <mxCell id="wkCi4Z63Fvo80z9R39oR-44" value="API Exposrt Service" style="sketch=0;html=1;dashed=0;whitespace=wrap;fillColor=#2875E2;strokeColor=#ffffff;points=[[0.005,0.63,0],[0.1,0.2,0],[0.9,0.2,0],[0.5,0,0],[0.995,0.63,0],[0.72,0.99,0],[0.5,1,0],[0.28,0.99,0]];verticalLabelPosition=bottom;align=center;verticalAlign=top;shape=mxgraph.kubernetes.icon;prIcon=api;fontSize=20;" vertex="1" parent="1">
          <mxGeometry x="299" y="100" width="230" height="138" as="geometry" />
        </mxCell>
        <mxCell id="wkCi4Z63Fvo80z9R39oR-49" value="SQL 1" style="image;aspect=fixed;perimeter=ellipsePerimeter;html=1;align=center;shadow=0;dashed=0;spacingTop=3;image=img/lib/active_directory/sql_server.svg;fontSize=20;" vertex="1" parent="1">
          <mxGeometry x="720" y="365" width="123.2" height="160" as="geometry" />
        </mxCell>
        <mxCell id="wkCi4Z63Fvo80z9R39oR-50" value="SQL 2" style="image;aspect=fixed;perimeter=ellipsePerimeter;html=1;align=center;shadow=0;dashed=0;spacingTop=3;image=img/lib/active_directory/sql_server.svg;fontSize=20;" vertex="1" parent="1">
          <mxGeometry x="864" y="365" width="123.2" height="160" as="geometry" />
        </mxCell>
        <mxCell id="wkCi4Z63Fvo80z9R39oR-51" value="SQL 3&lt;br style=&quot;font-size: 20px;&quot;&gt;" style="image;aspect=fixed;perimeter=ellipsePerimeter;html=1;align=center;shadow=0;dashed=0;spacingTop=3;image=img/lib/active_directory/sql_server.svg;fontSize=20;" vertex="1" parent="1">
          <mxGeometry x="1000" y="365" width="123.2" height="160" as="geometry" />
        </mxCell>
        <mxCell id="wkCi4Z63Fvo80z9R39oR-54" value="Module 1" style="sketch=0;html=1;aspect=fixed;strokeColor=none;shadow=0;fillColor=#3B8DF1;verticalAlign=top;labelPosition=center;verticalLabelPosition=bottom;shape=mxgraph.gcp2.gear;fontSize=20;" vertex="1" parent="1">
          <mxGeometry x="191.60000000000002" y="700" width="140" height="140" as="geometry" />
        </mxCell>
        <mxCell id="wkCi4Z63Fvo80z9R39oR-55" value="Module 2" style="sketch=0;html=1;aspect=fixed;strokeColor=none;shadow=0;fillColor=#3B8DF1;verticalAlign=top;labelPosition=center;verticalLabelPosition=bottom;shape=mxgraph.gcp2.gear;fontSize=20;" vertex="1" parent="1">
          <mxGeometry x="351" y="700" width="140" height="140" as="geometry" />
        </mxCell>
        <mxCell id="wkCi4Z63Fvo80z9R39oR-56" value="Module 3" style="sketch=0;html=1;aspect=fixed;strokeColor=none;shadow=0;fillColor=#3B8DF1;verticalAlign=top;labelPosition=center;verticalLabelPosition=bottom;shape=mxgraph.gcp2.gear;fontSize=20;" vertex="1" parent="1">
          <mxGeometry x="509" y="700" width="140" height="140" as="geometry" />
        </mxCell>
        <mxCell id="wkCi4Z63Fvo80z9R39oR-63" value="External API 1" style="sketch=0;html=1;dashed=0;whitespace=wrap;fillColor=#2875E2;strokeColor=#ffffff;points=[[0.005,0.63,0],[0.1,0.2,0],[0.9,0.2,0],[0.5,0,0],[0.995,0.63,0],[0.72,0.99,0],[0.5,1,0],[0.28,0.99,0]];verticalLabelPosition=bottom;align=center;verticalAlign=top;shape=mxgraph.kubernetes.icon;prIcon=api;fontSize=20;" vertex="1" parent="1">
          <mxGeometry x="-140" y="180" width="230" height="138" as="geometry" />
        </mxCell>
        <mxCell id="wkCi4Z63Fvo80z9R39oR-64" value="External API 2" style="sketch=0;html=1;dashed=0;whitespace=wrap;fillColor=#2875E2;strokeColor=#ffffff;points=[[0.005,0.63,0],[0.1,0.2,0],[0.9,0.2,0],[0.5,0,0],[0.995,0.63,0],[0.72,0.99,0],[0.5,1,0],[0.28,0.99,0]];verticalLabelPosition=bottom;align=center;verticalAlign=top;shape=mxgraph.kubernetes.icon;prIcon=api;fontSize=20;" vertex="1" parent="1">
          <mxGeometry x="-140" y="376" width="230" height="138" as="geometry" />
        </mxCell>
        <mxCell id="wkCi4Z63Fvo80z9R39oR-65" value="External API 3" style="sketch=0;html=1;dashed=0;whitespace=wrap;fillColor=#2875E2;strokeColor=#ffffff;points=[[0.005,0.63,0],[0.1,0.2,0],[0.9,0.2,0],[0.5,0,0],[0.995,0.63,0],[0.72,0.99,0],[0.5,1,0],[0.28,0.99,0]];verticalLabelPosition=bottom;align=center;verticalAlign=top;shape=mxgraph.kubernetes.icon;prIcon=api;fontSize=20;" vertex="1" parent="1">
          <mxGeometry x="-140" y="562" width="230" height="138" as="geometry" />
        </mxCell>
        <mxCell id="wkCi4Z63Fvo80z9R39oR-78" style="edgeStyle=orthogonalEdgeStyle;rounded=0;orthogonalLoop=1;jettySize=auto;html=1;entryX=1;entryY=0.5;entryDx=0;entryDy=0;" edge="1" parent="1" source="wkCi4Z63Fvo80z9R39oR-52" target="wkCi4Z63Fvo80z9R39oR-41">
          <mxGeometry relative="1" as="geometry" />
        </mxCell>
        <mxCell id="wkCi4Z63Fvo80z9R39oR-80" style="edgeStyle=orthogonalEdgeStyle;rounded=0;orthogonalLoop=1;jettySize=auto;html=1;" edge="1" parent="1" source="wkCi4Z63Fvo80z9R39oR-66" target="wkCi4Z63Fvo80z9R39oR-41">
          <mxGeometry relative="1" as="geometry" />
        </mxCell>
        <mxCell id="wkCi4Z63Fvo80z9R39oR-81" style="edgeStyle=orthogonalEdgeStyle;rounded=0;orthogonalLoop=1;jettySize=auto;html=1;" edge="1" parent="1" source="wkCi4Z63Fvo80z9R39oR-57" target="wkCi4Z63Fvo80z9R39oR-41">
          <mxGeometry relative="1" as="geometry" />
        </mxCell>
      </root>
    </mxGraphModel>
  </diagram>
</mxfile>
